<svg width="114" height="37" viewBox="0 0 114 37" fill="none" xmlns="http://www.w3.org/2000/svg">
<path d="M71.5058 22.2838V16.5854H74.0468V13.9894H71.5058V10.2335H68.8636V12.0748C68.8636 13.1579 68.285 13.9894 66.9778 13.9894H66.3504V16.5854H68.6126V22.7625C68.6126 25.058 70.0209 26.4171 72.2866 26.4171C73.3427 26.4171 73.897 26.2144 74.0712 26.1411V23.7233C73.9458 23.7478 73.4682 23.8246 73.0639 23.8246C71.9833 23.8246 71.5058 23.3669 71.5058 22.2838Z" fill="black"/>
<path d="M86.4106 18.1995C86.4106 15.7538 84.978 13.6121 81.203 13.6121C78.1844 13.6121 76.2742 15.5023 76.0476 17.6196L78.7142 18.224C78.8397 16.9872 79.6937 16.0054 81.2274 16.0054C82.8378 16.0054 83.5419 16.8369 83.5419 17.8711C83.5419 18.3009 83.3397 18.6537 82.6356 18.7516L79.4915 19.2302C77.4036 19.5342 75.7932 20.7431 75.7932 22.9372C75.7932 24.8798 77.3757 26.6442 79.9447 26.6442C81.9315 26.6442 83.141 25.6345 83.7162 24.7016C83.7162 25.6869 83.8173 26.19 83.8417 26.2634H86.557C86.5326 26.1376 86.4072 25.4074 86.4072 24.2963V18.1995H86.4106ZM83.5419 21.1763C83.5419 23.5731 82.1337 24.3522 80.4989 24.3522C79.3416 24.3522 78.7142 23.5975 78.7142 22.7625C78.7142 21.7528 79.4427 21.2497 80.349 21.0994L83.5454 20.6208V21.1763H83.5419Z" fill="black"/>
<path d="M92.8243 22.2838V16.5854H95.3654V13.9894H92.8243V10.2335H90.1822V12.0748C90.1822 13.1579 89.6035 13.9894 88.2964 13.9894H87.6655V16.5854H89.9312V22.7625C89.9312 25.058 91.3394 26.4171 93.6051 26.4171C94.6613 26.4171 95.2155 26.2144 95.3898 26.1411V23.7233C95.2643 23.7478 94.7868 23.8246 94.3824 23.8246C93.3019 23.8246 92.8243 23.3669 92.8243 22.2838Z" fill="black"/>
<path d="M108.472 19.9919C108.472 16.1102 106.258 13.6121 102.487 13.6121C99.3914 13.6121 96.5262 16.1836 96.5262 20.0653C96.5262 24.2264 99.4681 26.6442 102.79 26.6442C105.732 26.6442 107.67 24.9043 108.325 22.7625L105.861 21.9799C105.46 23.1888 104.554 24.1216 102.793 24.1216C100.981 24.1216 99.5239 22.787 99.4472 20.9213H108.402C108.419 20.8723 108.472 20.4705 108.472 19.9919ZM99.5169 18.7795C99.618 17.4693 100.674 16.0578 102.511 16.0578C104.522 16.0578 105.481 17.3435 105.53 18.7795H99.5169Z" fill="black"/>
<path d="M16.1353 18.1891C16.1353 15.7468 14.7027 13.6051 10.9347 13.6051C7.91952 13.6051 6.00935 15.4953 5.78278 17.6091L8.44586 18.2135C8.57134 16.9802 9.42534 15.9984 10.9591 15.9984C12.566 15.9984 13.2701 16.8299 13.2701 17.8606C13.2701 18.2869 13.0679 18.6398 12.3638 18.7411L9.22317 19.2197C7.13872 19.5202 5.52832 20.7291 5.52832 22.9232C5.52832 24.8623 7.11083 26.6267 9.67631 26.6267C11.6597 26.6267 12.8692 25.6205 13.4444 24.6876C13.4444 25.6729 13.5454 26.176 13.5698 26.2494H16.2817C16.2573 26.1236 16.1318 25.3934 16.1318 24.2858V18.1891H16.1353ZM13.2701 21.1623C13.2701 23.5556 11.8618 24.3348 10.2305 24.3348C9.07328 24.3348 8.44586 23.5801 8.44586 22.7485C8.44586 21.7388 9.17437 21.2357 10.0807 21.0855L13.2701 20.6068V21.1623Z" fill="black"/>
<path d="M24.2501 23.9574C22.4166 23.9574 20.8306 22.5738 20.8306 20.1037C20.8306 17.637 22.4131 16.3024 24.1978 16.3024C26.0591 16.3024 26.8853 17.5112 27.1641 18.5943L29.7784 17.637C29.2764 15.6735 27.4674 13.6051 24.1734 13.6051C20.6563 13.6051 17.9165 16.3268 17.9165 20.1037C17.9165 23.8316 20.6563 26.6267 24.2501 26.6267C27.4674 26.6267 29.3008 24.5339 29.8795 22.6228L27.3175 21.6899C27.0386 22.6228 26.1602 23.9574 24.2501 23.9574Z" fill="black"/>
<path d="M36.83 13.6051C33.7381 13.6051 30.8729 16.1731 30.8729 20.0548C30.8729 24.2125 33.8113 26.6302 37.1297 26.6302C40.0682 26.6302 42.0062 24.8938 42.6581 22.752L40.1972 21.9694C39.7963 23.1783 38.89 24.1111 37.1332 24.1111C35.3241 24.1111 33.8671 22.7765 33.7904 20.9143H42.7347C42.7591 20.8653 42.8114 20.4601 42.8114 19.9814C42.808 16.0997 40.598 13.6051 36.83 13.6051ZM33.8636 18.769C33.9647 17.4588 35.0209 16.0473 36.8544 16.0473C38.8656 16.0473 39.8207 17.3331 39.8695 18.769H33.8636Z" fill="black"/>
<path d="M54.1609 16.809C54.0249 16.6622 53.889 16.512 53.7635 16.3652C53.3452 15.8482 53.15 15.3939 53.1465 14.9363C53.143 14.4541 53.3139 14.0418 53.638 13.7483C53.9238 13.4898 54.3247 13.3396 54.736 13.3396H54.7534C55.963 13.3396 56.4161 14.2584 56.5834 15.0341L56.6044 15.1389L58.647 13.4758L58.6714 13.4549L58.6609 13.4269C58.0126 11.7603 56.6183 10.8449 54.736 10.8449H54.6907C52.7422 10.8589 50.6961 12.1447 50.5497 14.5729C50.5462 14.6288 50.5427 14.6847 50.5427 14.7441C50.5427 14.7616 50.5427 14.779 50.5392 14.7965C50.5427 14.8244 50.5427 14.8489 50.5427 14.8734L50.5462 14.9013C50.5706 16.1067 51.2956 17.2387 51.7488 17.8292C50.1732 19.0625 49.2007 20.2364 49.2007 22.2489C49.2007 23.4054 49.6748 24.5339 50.5079 25.3515C51.4455 26.2738 52.7561 26.763 54.2968 26.763C56.2 26.763 57.8209 26.0153 58.8701 24.6562L60.5641 26.2529L60.5781 26.2634L64.1927 26.2668L54.1609 16.809ZM53.4916 19.5831L56.9146 22.8149C56.4824 23.5766 55.6562 24.471 54.1539 24.471C53.8193 24.471 53.4986 24.4116 53.2023 24.2963C52.3936 23.926 51.8708 23.1259 51.8708 22.2524C51.8708 21.2217 52.3169 20.4566 53.3626 19.6879L53.4916 19.5831Z" fill="black"/>
</svg>
